<svg width="293" height="234" viewBox="0 0 293 234" fill="none" xmlns="http://www.w3.org/2000/svg">
<path d="M174.288 171.779L178.172 181.733L195.985 227.351H201.784C201.784 227.351 192.263 193.916 187.842 178.338C186.533 173.778 185.687 170.736 185.625 170.509L180.188 171.116L174.288 171.779Z" fill="#CC9281"/>
<g style="mix-blend-mode:multiply" opacity="0.44">
<path d="M174.288 171.779L178.172 181.733L195.985 227.351H197.774L180.193 171.116L174.288 171.779Z" fill="#CC9281"/>
</g>
<g style="mix-blend-mode:multiply" opacity="0.44">
<path d="M185.625 170.509L174.28 171.779L178.163 181.733C181.459 180.818 184.689 179.684 187.834 178.338C186.551 173.778 185.687 170.736 185.625 170.509Z" fill="#CC9281"/>
</g>
<path d="M138.724 227.351H144.349L149.96 185.682L152.142 169.462L151.492 169.553L140.84 171.011C140.84 171.356 140.613 177.404 140.312 185.411C139.684 202.116 138.724 227.351 138.724 227.351Z" fill="#CC9281"/>
<g style="mix-blend-mode:multiply" opacity="0.44">
<path d="M142.411 227.351H144.349L149.96 185.682L152.142 169.462L151.492 169.553L146.823 177.661L146.744 178.538L142.411 227.351Z" fill="#CC9281"/>
</g>
<g style="mix-blend-mode:multiply" opacity="0.44">
<path d="M140.84 171.011C140.84 171.356 140.613 177.404 140.312 185.411C143.668 185.634 146.884 185.712 149.961 185.673L152.142 169.453L140.84 171.011Z" fill="#CC9281"/>
</g>
<path d="M92.2324 227.351H98.0318L115.945 181.462L119.728 171.779L114.688 171.212L108.391 170.509C108.326 170.74 107.44 173.878 106.109 178.565C101.649 194.252 92.2324 227.351 92.2324 227.351Z" fill="#CC9281"/>
<g style="mix-blend-mode:multiply" opacity="0.44">
<path d="M96.3256 227.351H98.0318L115.945 181.462L119.728 171.779L114.688 171.212C111.494 181.231 100.188 215.678 96.3256 227.351Z" fill="#CC9281"/>
</g>
<g style="mix-blend-mode:multiply" opacity="0.44">
<path d="M106.109 178.565C109.46 179.679 112.739 180.645 115.945 181.462L119.728 171.779L108.383 170.509C108.326 170.74 107.44 173.878 106.109 178.565Z" fill="#CC9281"/>
</g>
<path d="M91.4163 123.747C91.8481 126.56 92.4484 129.345 93.2142 132.086C96.0244 142.123 97.3684 152.068 108.313 158.631C110.416 159.896 113.157 160.787 115.295 161.987C119.514 164.314 124.003 166.113 128.661 167.345C142.573 171.159 158.195 172.822 172.229 168.759C176.337 167.542 180.116 165.41 183.282 162.523C187.816 158.474 191.298 153.133 193.908 147.534C195.066 145.022 196.096 142.453 196.993 139.836C197.748 137.654 198.437 135.472 199.083 133.26C199.729 131.048 200.318 128.94 200.916 126.771C203.604 116.996 206.266 107.016 205.843 96.8838C205.543 88.8194 203.099 80.9807 198.761 74.1755C194.423 67.3704 188.35 61.8449 181.166 58.1686C174.62 54.8434 167.267 53.2069 160.028 52.2949C152.142 51.3 144.026 50.6411 136.092 51.3C130.68 51.7658 125.39 53.167 120.457 55.4412C113.651 58.5875 107.624 63.1977 102.806 68.9427C95.06 78.1589 91.9312 91.4116 90.8446 103.163C90.1943 110.022 90.3863 116.935 91.4163 123.747Z" fill="#9D77E8"/>
<path d="M92.276 131.925C92.8214 124.406 99.258 56.0478 151.051 63.5971C205.873 71.5828 195.998 135.429 195.998 135.429L199.009 133.099C199.651 130.947 200.257 128.783 200.855 126.623C203.569 116.866 206.253 106.907 205.825 96.7923C205.507 88.7177 203.033 80.8756 198.659 74.0811C194.285 67.2865 188.17 61.7875 180.952 58.1556C174.345 54.8347 166.935 53.2027 159.635 52.2906C151.688 51.3001 143.489 50.6412 135.499 51.3001C130.047 51.762 124.715 53.1599 119.737 55.4326C112.885 58.5631 106.807 63.1638 101.933 68.9079C94.1218 78.1067 90.9668 91.3332 89.8715 103.059C88.9944 112.401 89.6097 122.521 92.276 131.925Z" fill="#B79BF9"/>
<path d="M91.4163 123.747C91.848 126.56 92.4484 129.345 93.2141 132.086C96.0244 142.123 95.9415 150.85 104.019 157.448C105.921 158.998 113.156 160.787 115.286 161.987L183.273 162.524C187.807 158.474 191.29 153.133 193.899 147.534C195.058 145.022 196.087 142.453 196.984 139.836L196.26 134.207C196.26 134.207 186.66 142.498 145.44 139.972C104.22 137.445 94.5145 124.581 93.1705 122.678C92.769 122.111 92.1276 122.674 91.4163 123.747Z" fill="#8463D3"/>
<path d="M101.086 149.934C101.37 150.37 101.658 150.807 101.959 151.243C103.759 153.965 105.897 156.447 108.322 158.631C111.529 161.454 115.264 163.492 119.087 165.177C132.937 171.347 148.259 173.302 163.161 171.762C166.131 171.507 169.069 170.96 171.932 170.129C179.206 167.882 185.669 162.711 189.771 155.86C190.251 155.062 190.688 154.239 191.08 153.394C191.268 152.993 191.447 152.583 191.621 152.164C191.809 151.701 180.463 147.56 146.238 147.682C113.405 147.805 104.468 147.429 101.466 149.62C101.333 149.717 101.207 149.822 101.086 149.934Z" fill="#8463D3"/>
<g style="mix-blend-mode:multiply" opacity="0.56">
<path d="M101.444 149.633C101.625 149.815 101.794 150.007 101.95 150.209C103.814 152.6 112.118 160.878 144.2 162.524C176.283 164.169 187.69 155.541 188.039 156.231L188.375 156.903L191.076 153.412C191.263 153.011 191.442 152.6 191.617 152.181C191.805 151.719 180.459 147.578 146.234 147.7C113.384 147.818 104.447 147.442 101.444 149.633Z" fill="#8D45FF"/>
</g>
<path d="M168.786 180.005C191.263 175.541 208.993 158.003 213.296 135.494C214.605 128.534 214.457 122.067 210.137 120.029C200.401 115.443 197.045 127.448 193.938 138.309C190.831 149.17 175.349 171.591 146.84 170.191C111.638 168.445 100.331 153.77 95.1342 136.633C89.937 119.497 88.8243 116.486 82.4401 116.486C76.0559 116.486 71.0245 136.694 90.9014 160.019C110.778 183.343 152.963 182.911 165.879 180.559C166.818 180.389 167.795 180.201 168.786 180.005Z" fill="#9D77E8"/>
<g style="mix-blend-mode:multiply" opacity="0.17">
<path d="M146.5 233.666C227.41 233.666 293 231.47 293 228.761C293 226.052 227.41 223.856 146.5 223.856C65.5903 223.856 0 226.052 0 228.761C0 231.47 65.5903 233.666 146.5 233.666Z" fill="#5E108C"/>
</g>
<path d="M13.9335 102.504V110.045H50.4363V103.29L13.9335 102.504Z" fill="#FF8888"/>
<path d="M92.9349 68.2403C93.2099 72.8702 97.5169 76.8892 102.156 76.8412C98.3634 80.2493 97.4863 86.4415 100.192 90.8052C102.374 94.3311 106.772 96.273 110.879 95.8279C109.57 99.1313 110.294 103.246 113.104 105.638C114.748 107.042 116.873 107.752 119.03 107.619C119.981 107.54 121.618 107.182 122.434 106.371C123.494 108.684 126.226 110.084 128.827 110.089C131.746 110.089 134.5 108.714 136.922 107.117C137.817 109.045 139.179 110.718 140.886 111.986C142.592 113.253 144.587 114.075 146.691 114.375C148.795 114.676 150.941 114.447 152.934 113.708C154.927 112.97 156.704 111.745 158.103 110.145L163.597 109.53C165.526 110.809 167.59 112.148 169.903 112.209C171.262 112.235 172.575 111.724 173.56 110.787C174.59 112.035 176.304 112.724 177.867 112.969C180.085 113.299 182.344 112.746 184.159 111.428C185.988 110.119 187.524 108.086 187.947 105.83C187.996 105.556 188.02 105.279 188.017 105.001C188.106 104.41 188.059 103.806 187.88 103.236C187.701 102.666 187.394 102.144 186.983 101.71C191.674 101.614 196.583 99.6942 199.092 95.7407C201.601 91.7871 200.803 85.704 196.709 83.4087C199.2 83.4541 201.663 82.8796 203.876 81.737C206.09 80.5944 207.985 78.9196 209.39 76.8631C210.9 74.607 211.773 71.7618 211.031 69.1523C210.787 68.3235 210.371 67.5555 209.81 66.8984C209.249 66.2412 208.556 65.7097 207.776 65.3384C208.212 65.0329 208.649 64.7187 208.998 64.4263C210.921 62.8407 212.363 60.7488 213.161 58.3869C214.71 53.7395 213.283 47.2593 208.854 44.6324C208.812 44.6132 208.767 44.6032 208.721 44.6032C208.675 44.6032 208.629 44.6132 208.588 44.6324C208.541 44.6452 208.497 44.6689 208.461 44.7016C208.425 44.7342 208.397 44.775 208.38 44.8204C208.362 44.8659 208.356 44.9149 208.361 44.9633C208.366 45.0118 208.382 45.0583 208.409 45.0993C208.98 45.8957 209.505 46.7248 209.98 47.5823C211.69 50.6849 212.537 54.0711 211.367 57.7105C210.686 59.7599 209.459 61.5852 207.82 62.9907C207.043 63.6729 206.188 64.259 205.271 64.7362C206.668 63.6494 207.828 62.2881 208.679 60.7361C209.53 59.1841 210.054 57.4743 210.22 55.7119C210.354 54.3798 210.264 53.0346 209.953 51.7322C209.43 49.7164 208.428 47.8566 207.032 46.3107C205.637 44.7648 203.889 43.5782 201.937 42.8519H201.898C201.105 42.5567 200.283 42.349 199.445 42.2323C200.455 41.71 201.258 40.8609 201.723 39.8235C202.109 39.0108 202.33 38.1298 202.374 37.2314C202.478 35.2022 201.819 33.2167 201.064 31.3447C199.987 28.7264 198.547 26.1082 196.138 24.6551C193.729 23.2019 190.129 23.3852 188.558 25.7242C189.985 23.7998 190.007 21.0899 189.086 18.8775C188.165 16.665 186.42 14.8977 184.526 13.4315C182.344 11.7427 179.778 10.3507 177.016 10.2416C175.176 10.163 173.37 10.7606 171.941 11.9216C171.944 9.36797 171.12 6.88196 169.591 4.83639C168.063 2.79081 165.912 1.29591 163.462 0.575868C160.281 -0.436523 156.886 -0.074339 154.198 1.95917C151.798 3.77449 150.423 6.38402 150.589 9.37756C150.588 9.43593 150.601 9.49372 150.627 9.5461C150.652 9.59847 150.69 9.64391 150.737 9.67866C150.419 10.3914 150.178 11.136 150.017 11.8998C149.447 9.57367 148.14 7.49426 146.291 5.97175C144.442 4.44925 142.15 3.56525 139.758 3.45159C135.268 3.3425 130.908 6.38838 129.364 10.5776C126.915 5.36726 119.017 4.79998 114.274 7.20005C112.848 7.90738 111.613 8.94552 110.671 10.2277C109.729 11.5099 109.107 12.999 108.858 14.5704C108.56 16.5669 108.917 18.6064 109.875 20.383C110.075 21.4277 110.491 22.4191 111.097 23.2936C107.964 22.0761 103.552 23.023 100.995 24.5329C97.0456 26.8631 95.4964 31.8378 98.2674 35.4423C98.488 35.7322 98.7286 36.0063 98.9875 36.2626C99.0189 36.2879 99.0579 36.3019 99.0982 36.3022C99.1385 36.3026 99.1777 36.2893 99.2096 36.2646C99.2414 36.2398 99.2639 36.2051 99.2735 36.1659C99.2831 36.1268 99.2792 36.0855 99.2624 36.0488C99.051 35.6869 98.8714 35.3073 98.7256 34.9143C98.088 33.2024 98.1076 31.315 98.7806 29.6168C99.4536 27.9186 100.732 26.5302 102.369 25.7199L102.718 25.5497C101.879 26.1509 101.159 26.9025 100.593 27.7664C99.4113 29.7229 98.9834 32.0433 99.3899 34.2927C99.7964 36.5421 101.009 38.566 102.801 39.9849C99.5853 38.7806 96.0507 40.7312 94.2746 43.6985C93.5583 44.8658 93.1596 46.2002 93.1182 47.5692C93.0353 52.3693 96.7183 56.5934 101.073 58.6095C96.4609 59.1113 92.66 63.6147 92.9349 68.2403ZM124.315 8.25173C121.652 7.73146 118.893 8.09938 116.46 9.29901C113.842 10.6081 111.494 12.6897 110.351 15.369C110.379 15.0199 110.43 14.6729 110.503 14.3304C110.803 13.0653 111.389 11.8859 112.217 10.8834C113.045 9.88081 114.092 9.08196 115.277 8.54846C117.889 7.31269 120.873 7.11461 123.625 7.99425C123.878 8.06844 124.097 8.15572 124.315 8.25173ZM169.811 8.60953C168.424 5.41963 165.277 2.87119 161.751 2.58318C157.724 2.25154 153.822 4.57307 151.619 7.97244C152.218 5.85061 153.512 3.99124 155.293 2.69228C157.649 1.05151 160.612 1.00351 163.257 1.95917C165.788 2.86272 167.895 4.67241 169.17 7.03859C169.43 7.54188 169.645 8.06765 169.811 8.60953ZM174.232 109.905C174.521 109.394 174.66 108.812 174.633 108.225C177.129 109.587 180.044 110.625 182.785 110.215L182.444 110.412C180.964 111.225 179.254 111.518 177.587 111.245C176.399 110.998 175.263 110.545 174.232 109.905ZM112.306 95.5574C112.742 95.4476 113.171 95.3091 113.589 95.1428C112.841 96.298 112.45 97.647 112.462 99.0227C112.475 100.398 112.891 101.74 113.659 102.881C114.427 104.023 115.514 104.913 116.783 105.443C118.053 105.972 119.45 106.118 120.802 105.86C119.855 106.053 118.884 106.103 117.922 106.009C116.32 105.834 114.824 105.127 113.672 104.001C111.415 101.758 111.298 98.4156 112.306 95.5574Z" fill="#3D2326"/>
<path d="M107.929 83.9193C106.689 84.9055 105.363 86.0094 105.188 87.6939C105.134 88.4506 105.27 89.209 105.584 89.8997C105.898 90.5904 106.38 91.1913 106.986 91.6474C109.879 93.873 113.506 92.2191 114.911 89.2212C114.982 89.1286 115.013 89.0116 114.998 88.8958C114.983 88.78 114.923 88.6749 114.83 88.6037C114.737 88.5326 114.62 88.5011 114.505 88.5162C114.389 88.5314 114.284 88.5919 114.213 88.6844C112.768 89.9543 110.591 90.8663 108.697 90.1332C105.795 89.0379 107.078 86.0226 108.409 84.2902C108.64 83.9934 108.177 83.7272 107.929 83.9193Z" fill="#543439"/>
<path d="M122.757 93.8641C121.884 94.3005 121.011 94.8678 120.658 95.8147C120.472 96.2706 120.434 96.7737 120.55 97.2523C120.666 97.7309 120.93 98.1608 121.304 98.481C122.107 99.1138 123.35 99.1879 124.323 99.0483C124.873 98.9571 125.408 98.7896 125.912 98.5508C126.334 98.2972 126.723 97.9939 127.073 97.6475C127.636 97.2112 126.916 96.4955 126.366 96.7355C125.77 96.939 125.149 97.0608 124.52 97.0977C123.99 97.1684 123.451 97.1492 122.927 97.041C121.326 96.6046 122.403 95.1602 123.228 94.4751C123.586 94.1783 123.128 93.6852 122.757 93.8641Z" fill="#543439"/>
<path d="M175.497 95.9326C176.287 97.4948 175.851 99.7247 174.24 100.606C172.63 101.488 171.452 100.401 170.287 99.3931C170.187 99.2977 170.061 99.2335 169.925 99.208C169.789 99.1826 169.649 99.197 169.521 99.2496C169.393 99.3022 169.283 99.3908 169.205 99.5045C169.126 99.6182 169.082 99.7523 169.078 99.8905C168.864 102.984 173.119 103.936 175.283 102.779C178.198 101.221 178.456 97.7567 176.592 95.2911C176.504 95.1528 176.365 95.0541 176.205 95.0156C176.045 94.9772 175.877 95.0019 175.735 95.0847C175.593 95.1675 175.489 95.3019 175.444 95.4599C175.398 95.6179 175.416 95.7873 175.493 95.9326H175.497Z" fill="#543439"/>
<path d="M188.279 88.9636C190.364 89.7273 189.54 92.0183 188.492 93.2794C187.135 94.9245 185.22 94.8111 183.64 93.5063C183.465 93.3623 183.204 93.5412 183.313 93.7594C184.892 96.4213 188.218 96.8141 190.09 94.2307C191.687 92.0183 191.905 88.4531 188.597 87.8116C188.446 87.774 188.286 87.797 188.151 87.8756C188.017 87.9542 187.918 88.0823 187.877 88.2325C187.835 88.3827 187.854 88.5432 187.929 88.6798C188.004 88.8164 188.13 88.9182 188.279 88.9636Z" fill="#543439"/>
<g style="mix-blend-mode:multiply" opacity="0.19">
<g style="mix-blend-mode:multiply" opacity="0.19">
<path d="M92.9349 68.2401C93.2099 72.8701 97.5169 76.8891 102.156 76.8411C98.3634 80.2491 97.4863 86.4413 100.192 90.8051C102.374 94.331 106.772 96.2729 110.879 95.8278C109.57 99.1311 110.294 103.246 113.104 105.637C114.748 107.042 116.873 107.752 119.03 107.619C119.981 107.54 121.618 107.182 122.434 106.371C123.494 108.683 126.226 110.084 128.827 110.089C131.746 110.089 134.5 108.714 136.922 107.117C137.817 109.044 139.179 110.718 140.886 111.985C142.592 113.253 144.587 114.074 146.691 114.375C148.795 114.676 150.941 114.447 152.934 113.708C154.927 112.969 156.704 111.745 158.103 110.145L163.597 109.53C165.526 110.809 167.59 112.148 169.903 112.209C171.262 112.235 172.575 111.724 173.56 110.787C174.59 112.035 176.304 112.724 177.867 112.969C180.085 113.299 182.344 112.746 184.159 111.428C185.988 110.119 187.524 108.086 187.947 105.83C187.996 105.556 188.02 105.278 188.017 105C188.106 104.409 188.059 103.806 187.88 103.236C187.701 102.665 187.394 102.144 186.983 101.71C191.674 101.614 196.583 99.6941 199.092 95.7405C201.601 91.7869 200.803 85.7039 196.709 83.4085C199.2 83.4539 201.663 82.8794 203.876 81.7369C206.09 80.5943 207.985 78.9194 209.39 76.8629C210.9 74.6068 211.773 71.7616 211.031 69.1521C210.787 68.3234 210.371 67.5554 209.81 66.8982C209.249 66.2411 208.556 65.7095 207.776 65.3382C208.212 65.0327 208.649 64.7186 208.998 64.4262C210.921 62.8405 212.363 60.7486 213.161 58.3868C214.71 53.7394 213.283 47.2592 208.854 44.6322C208.812 44.613 208.767 44.6031 208.721 44.6031C208.675 44.6031 208.629 44.613 208.588 44.6322C209.13 45.5763 209.596 46.5628 209.98 47.5821C211.69 50.6847 212.537 54.071 211.367 57.7104C210.686 59.7597 209.459 61.585 207.82 62.9905C207.043 63.6727 206.188 64.2588 205.271 64.736C206.668 63.6493 207.828 62.288 208.679 60.736C209.53 59.1839 210.054 57.4741 210.22 55.7118C208.91 58.9933 205.777 61.5985 202.33 61.1403C203.621 62.8196 204.345 64.8656 204.398 66.983C204.45 69.1004 203.829 71.1799 202.624 72.9216C201.419 74.6632 199.691 75.9771 197.691 76.6737C195.691 77.3703 193.521 77.4136 191.495 76.7974C191.582 78.1472 191.257 79.4916 190.563 80.6526C189.869 81.8136 188.839 82.7365 187.609 83.299C186.379 83.8615 185.007 84.0372 183.675 83.8027C182.342 83.5682 181.113 82.9347 180.149 81.9859C180.149 85.0406 177.299 87.829 174.236 87.7156C171.173 87.6021 168.515 84.6217 168.755 81.567C166.296 85.1465 162.942 88.0196 159.028 89.9006C155.113 91.7817 150.775 92.605 146.443 92.2888C141.538 91.8786 136.289 89.4436 134.696 84.7919C132.471 87.6719 127.876 87.9032 124.817 85.9221C122.894 84.6026 121.43 82.7176 120.627 80.5285C120.378 81.3354 119.848 82.027 119.135 82.479C117.171 83.6616 114.409 82.8456 113.026 81.0085C111.642 79.1713 111.542 76.6098 112.297 74.4628C109.378 76.8367 104.486 76.1472 102.343 73.0533C100.201 69.9594 101.265 65.1331 104.525 63.2349C100.519 59.1984 100.628 51.8498 104.743 47.9355C100.816 48.6119 96.8361 46.7355 94.2702 43.7158C93.5539 44.8832 93.1553 46.2175 93.1138 47.5865C93.0309 52.3866 96.714 56.6107 101.069 58.6267C96.4609 59.1111 92.66 63.6145 92.9349 68.2401ZM174.232 109.905C174.521 109.394 174.66 108.812 174.633 108.225C177.129 109.587 180.044 110.625 182.785 110.215L182.444 110.411C180.964 111.224 179.254 111.518 177.587 111.245C176.399 110.998 175.263 110.544 174.232 109.905ZM112.306 95.5572C112.742 95.4474 113.171 95.3089 113.589 95.1427C112.841 96.2978 112.45 97.6469 112.462 99.0225C112.475 100.398 112.891 101.74 113.659 102.881C114.427 104.023 115.514 104.913 116.783 105.443C118.053 105.972 119.45 106.117 120.802 105.86C119.855 106.052 118.884 106.102 117.922 106.008C116.32 105.834 114.824 105.127 113.672 104.001C111.415 101.758 111.298 98.4155 112.306 95.5572Z" fill="#3D2326"/>
</g>
</g>
<path d="M142.315 149.249C142.671 149.895 143.112 150.49 143.624 151.021C143.868 151.278 144.128 151.52 144.401 151.745C147.128 154.036 151.248 155.175 156.249 158.867C156.934 159.383 157.425 160.115 157.645 160.944C157.813 161.542 157.895 162.16 157.889 162.781C157.916 168.017 153.377 176.282 150.388 181.152C148.918 183.544 147.818 185.119 147.818 185.119C147.818 185.119 149.563 184.05 152.238 182.291C157.039 179.123 164.81 173.703 170.636 168.244C175.083 164.081 178.404 159.892 178.408 156.659C178.408 150.139 170.828 145.147 165.722 142.524C164.249 141.758 162.734 141.075 161.184 140.478H149.651L141.796 142.481L140.701 142.756C140.701 142.756 139.898 144.92 142.315 149.249Z" fill="#FFD261"/>
<path d="M144.597 151.029C144.597 151.029 136.908 182.509 132.501 187.118C128.094 191.726 122.622 152.888 124.062 146.622C124.917 142.917 144.597 151.029 144.597 151.029Z" fill="#3DA6C0"/>
<path d="M133.788 170.448C138.318 170.287 143.445 154.865 144.41 151.745C144.484 151.509 144.549 151.269 144.61 151.029C145.614 147.015 144.868 142.686 144.868 142.686C144.868 142.686 143.65 142.585 141.813 142.485C137.013 142.214 128.089 141.948 125.759 143.506C125.124 143.988 124.638 144.64 124.358 145.387C122.591 149.515 127.487 170.671 133.788 170.448Z" fill="#FFD261"/>
<path d="M109.482 120.357C109.452 121.469 110.469 122.325 111.49 122.765C114.038 123.852 116.94 123.416 119.702 123.228C129.054 122.604 138.322 125.109 147.683 125.541C149.459 125.624 151.243 125.632 153.024 125.641L177.173 125.741C178.102 125.741 179.128 125.715 179.822 125.096C180.516 124.476 180.446 123.045 179.534 122.853L180.882 121.744C176.03 115.107 166.918 111.306 159.779 107.261C158.431 106.497 157.078 105.734 155.677 105.079C155.476 104.983 155.271 104.887 155.066 104.8C154.621 104.599 154.172 104.411 153.718 104.237C147.914 101.998 141.499 101.706 135.294 102.766C134.13 102.967 132.977 103.213 131.833 103.504C131.34 103.63 130.852 103.766 130.367 103.905C122.032 106.336 114.073 111.324 109.962 118.96C109.696 119.382 109.531 119.86 109.482 120.357Z" fill="#F47676"/>
<path d="M135.294 102.758C135.464 103.194 138.431 106.82 144.689 107.069C150.31 107.287 152.98 105.323 153.718 104.228C147.914 101.989 141.486 101.697 135.294 102.758Z" fill="#E05A5A"/>
<path d="M138.191 102.609C138.191 102.609 139.413 105.227 144.689 105.328C149.965 105.428 151.405 103.656 151.405 103.656L151.693 101.697L152.103 98.8868L139.994 96.0939L138.855 95.8278L138.781 96.5522L138.414 100.305L138.191 102.609Z" fill="#995650"/>
<path d="M124.354 145.387C127.635 147.682 133.038 150.187 141.447 150.907C142.189 150.973 142.913 151.007 143.629 151.021C143.96 151.021 144.283 151.021 144.606 151.021C152.47 150.97 160.02 147.931 165.727 142.52C164.253 141.754 162.738 141.071 161.188 140.473H149.651L141.796 142.476C136.996 142.206 128.072 141.94 125.742 143.497C125.11 143.984 124.629 144.639 124.354 145.387Z" fill="#F9B25D"/>
<path d="M122.622 122.15C123.058 125.615 123.66 129.058 124.149 132.518C124.184 132.758 124.219 132.998 124.249 133.234C124.428 134.543 124.537 135.817 124.624 137.113C124.795 139.535 124.886 141.961 125.201 144.361C125.279 144.981 127.439 145.308 127.867 145.413C129.861 145.902 131.895 146.286 133.924 146.578C138.427 147.25 142.961 147.887 147.525 147.547C150.344 147.356 153.111 146.701 155.716 145.61C157.033 145.015 158.29 144.3 159.473 143.471C160.381 142.856 161.747 141.97 161.996 140.805C162.096 140.369 162.319 138.012 162.432 137.48C162.738 136.022 163.087 134.316 163.444 132.518C164.317 128.229 165.247 123.446 165.862 120.461L122.622 122.15Z" fill="#F47676"/>
<path d="M152.234 116.914C155.328 114.719 158.001 111.984 160.124 108.841C160.74 107.992 161.22 107.053 161.546 106.057C161.799 105.184 161.747 104.054 160.962 103.595C160.694 103.467 160.398 103.411 160.102 103.434C159.807 103.456 159.522 103.555 159.277 103.722C158.791 104.058 158.369 104.479 158.033 104.966C155.037 108.791 152.094 112.657 149.206 116.564L152.234 116.914Z" fill="#6F45BF"/>
<path d="M141.39 120.919L146.561 121.063C148.312 121.078 150.06 121.193 151.798 121.408C153.609 121.666 155.382 122.142 157.078 122.826C157.192 122.859 157.299 122.914 157.391 122.989C157.484 123.064 157.56 123.157 157.615 123.263C157.643 123.396 157.633 123.535 157.586 123.663C157.539 123.792 157.456 123.904 157.348 123.987C156.722 124.523 155.941 124.844 155.118 124.904C153.064 125.135 150.987 125.091 148.944 124.773C145.846 124.397 142.769 123.9 139.693 123.359L141.39 120.919Z" fill="#995650"/>
<path d="M155.786 121.858C155.158 120.38 154.468 118.925 153.718 117.494C153.489 116.982 153.14 116.533 152.701 116.185C152.29 115.936 151.827 115.786 151.348 115.748C150.155 115.601 148.945 115.656 147.77 115.91C146.897 116.093 145.968 116.499 145.745 117.346C145.693 117.603 145.699 117.869 145.761 118.123C145.824 118.378 145.942 118.616 146.107 118.82C146.438 119.225 146.831 119.574 147.272 119.855C146.836 119.666 146.345 119.646 145.895 119.799C145.444 119.952 145.067 120.267 144.837 120.683C144.606 121.099 144.538 121.586 144.646 122.049C144.754 122.512 145.031 122.918 145.422 123.189C144.693 123.101 143.786 123.459 143.738 124.188C143.738 124.39 143.79 124.588 143.89 124.764C143.989 124.94 144.132 125.087 144.305 125.192C144.655 125.392 145.04 125.523 145.44 125.58C148.958 126.247 152.593 125.93 155.943 124.664L155.786 121.858Z" fill="#A1665E"/>
<path d="M110.983 117.171C118.912 111.498 135.931 117.607 143.184 120.919C143.367 123.027 141.381 125.366 141.194 125.72C141.194 125.72 123.071 125.414 116.652 125.222C110.233 125.03 105.018 121.443 110.983 117.171Z" fill="#FF8888"/>
<path d="M181.301 122.15C181.193 121.89 181.061 121.64 180.908 121.404C179.996 119.99 176.946 118.035 175.301 117.743C165.552 115.997 157.959 117.433 154.512 119.052C154.076 119.248 154.019 124.013 153.918 124.808C153.861 125.029 153.892 125.264 154.006 125.462C154.169 125.622 154.388 125.711 154.617 125.711C162.135 126.614 169.723 126.776 177.273 126.195C178.399 126.108 179.577 125.99 180.537 125.383C181.75 124.637 181.79 123.306 181.301 122.15Z" fill="#FF8888"/>
<g style="mix-blend-mode:multiply" opacity="0.49">
<path d="M138.418 100.305C139.902 101.649 141.848 103.032 143.729 103.237C147.451 103.643 151.584 101.745 151.693 101.697L152.103 98.8868L139.994 96.094L138.781 96.5522L138.418 100.305Z" fill="#BC827E"/>
</g>
<path d="M177.12 118.511C176.365 118.48 175.615 118.162 174.869 118.022C174.002 117.874 173.128 117.772 172.25 117.716C170.505 117.577 168.698 117.415 166.922 117.385C165.173 117.358 163.424 117.443 161.686 117.638C160.774 117.738 159.862 117.86 158.963 118.026C158.151 118.179 157.217 118.58 156.401 118.506C156.374 118.505 156.347 118.495 156.326 118.478C156.304 118.46 156.289 118.437 156.282 118.41C156.274 118.383 156.276 118.355 156.285 118.329C156.295 118.304 156.313 118.281 156.336 118.266C156.986 117.769 158.02 117.651 158.806 117.45C159.722 117.215 160.643 117.014 161.577 116.844C163.392 116.534 165.234 116.398 167.075 116.438C168.847 116.497 170.614 116.658 172.368 116.918C173.265 117.035 174.153 117.215 175.026 117.455C175.746 117.66 176.623 117.891 177.155 118.441C177.16 118.447 177.163 118.454 177.164 118.462C177.165 118.47 177.164 118.478 177.161 118.485C177.157 118.492 177.152 118.498 177.146 118.503C177.14 118.507 177.133 118.51 177.125 118.511H177.12Z" fill="#E05A5A"/>
<path d="M142.333 120.636C141.064 120.318 139.824 119.898 138.623 119.379C137.489 118.943 136.359 118.506 135.211 118.07C132.865 117.2 130.464 116.487 128.024 115.936C125.767 115.444 123.469 115.167 121.16 115.111C120.025 115.085 118.882 115.081 117.752 115.164C116.577 115.2 115.408 115.346 114.261 115.6C114.23 115.6 114.221 115.57 114.261 115.556C115.328 115.115 116.436 114.777 117.568 114.548C118.722 114.353 119.889 114.255 121.059 114.256C123.37 114.276 125.672 114.538 127.928 115.037C130.392 115.617 132.806 116.395 135.145 117.363C136.302 117.821 137.454 118.288 138.593 118.781C139.898 119.282 141.164 119.881 142.381 120.57C142.385 120.573 142.389 120.577 142.391 120.582C142.394 120.586 142.395 120.591 142.395 120.597C142.395 120.602 142.394 120.607 142.391 120.612C142.389 120.616 142.385 120.62 142.381 120.623L142.333 120.636Z" fill="#E05A5A"/>
<path opacity="0.46" d="M124.149 132.518C124.184 132.758 124.219 132.998 124.249 133.234C124.428 134.543 124.537 135.817 124.625 137.113L130.577 138.889C139.714 141.15 149.276 141.045 158.361 138.584L162.432 137.48C162.738 136.022 163.087 134.316 163.445 132.518H124.149Z" fill="#E05A5A"/>
<path d="M119.1 61.7906C119.1 61.7906 114.549 58.784 111.324 61.8342C108.099 64.8845 111.136 74.271 114.313 75.6063C117.49 76.9416 118.908 76.2739 118.908 76.2739L119.1 61.7906Z" fill="#995650"/>
<path d="M180.258 70.6359C180.258 70.6359 185.495 69.0432 187.703 72.8833C189.911 76.7234 184.36 84.8618 180.917 85.2589C177.474 85.656 176.322 84.5912 176.322 84.5912L180.258 70.6359Z" fill="#995650"/>
<path d="M118.694 48.3677C118.694 48.3677 117.73 61.3367 117.642 71.8796V71.9232C117.642 73.5072 117.642 75.0346 117.669 76.4528V76.479C117.769 80.7249 118.105 83.9977 118.834 84.9054C121.452 88.1346 137.332 99.9036 144.144 100.44C150.955 100.977 169.994 95.0162 173.311 92.3456C174.371 91.4728 175.868 88.1564 177.413 84.0152C180.69 75.2179 184.181 62.7855 184.181 62.7855C186.485 41.8133 175.89 33.0771 153.438 29.0799C130.987 25.0827 118.694 48.3677 118.694 48.3677Z" fill="#A1665E"/>
<path d="M126.61 60.3855L126.658 60.2459C126.715 60.0422 126.805 59.8492 126.924 59.6742C127.13 59.3947 127.365 59.1387 127.627 58.9105C128.074 58.5252 128.561 58.1887 129.08 57.9069C130.116 57.3129 131.249 56.908 132.427 56.7112C132.831 56.6444 133.239 56.6108 133.649 56.6108C134.499 56.6178 135.344 56.7367 136.162 56.9643C137.061 57.2 138.615 57.7323 138.903 58.6705C138.962 58.863 138.97 59.0676 138.927 59.2642C138.883 59.4608 138.789 59.6427 138.654 59.792C138.494 59.97 138.297 60.1105 138.077 60.2033C137.857 60.2961 137.619 60.3389 137.38 60.3288C137.266 60.3288 137.144 60.3288 137.022 60.3288H136.843C136.407 60.3288 135.97 60.2546 135.56 60.2022L135.307 60.1717C134.932 60.1247 134.555 60.0999 134.177 60.0975C133.698 60.0934 133.22 60.1491 132.754 60.2633C131.964 60.4997 131.204 60.8277 130.489 61.2408L130.206 61.3936C129.892 61.5723 129.567 61.7297 129.233 61.8648C128.952 61.9825 128.659 62.0703 128.36 62.1266C128.273 62.1266 128.19 62.1266 128.107 62.1266C128.024 62.1266 127.95 62.1266 127.871 62.1266H127.74C127.663 62.1331 127.586 62.1331 127.509 62.1266C127.317 62.1271 127.129 62.0753 126.965 61.9769C126.8 61.8785 126.665 61.7372 126.575 61.5681C126.476 61.3855 126.427 61.1799 126.433 60.9721C126.439 60.7643 126.5 60.5619 126.61 60.3855Z" fill="#3D2326"/>
<path d="M165.207 63.296C165.644 62.9634 166.182 62.7923 166.73 62.8117C167.382 62.8402 168.026 62.9636 168.642 63.1782L168.847 63.2349C169.876 63.5496 170.854 64.0096 171.753 64.6008C172.621 65.161 173.416 65.8281 174.118 66.5863C174.642 67.1448 176.021 68.6198 175.371 70.0773C175.252 70.3378 175.059 70.5573 174.816 70.708C174.573 70.8587 174.291 70.9339 174.005 70.9239H173.935C172.975 70.889 172.294 70.0729 171.797 69.4751C171.666 69.318 171.539 69.1696 171.439 69.0693C170.915 68.5321 170.329 68.0589 169.693 67.6598C169.061 67.2819 168.393 66.9662 167.699 66.7172C167.479 66.6427 167.254 66.58 167.027 66.5295C166.346 66.3681 165.495 66.163 164.95 65.4779C164.827 65.3237 164.736 65.1468 164.683 64.9573C164.629 64.7678 164.613 64.5695 164.636 64.3739C164.677 63.9532 164.882 63.5658 165.207 63.296Z" fill="#3D2326"/>
<g style="mix-blend-mode:multiply" opacity="0.49">
<path d="M178.975 81.5801C180.967 80.9402 182.645 79.574 183.675 77.7532C184.09 76.9459 184.212 75.5713 183.108 75.2658C182.196 75.0083 181.637 76.1604 181.131 76.719C180.865 77.0113 180.302 76.7189 180.507 76.3436C181.048 75.292 181.611 73.9523 183.016 73.9872C184.421 74.0222 185.342 75.4229 185.298 76.7495C185.25 78.3684 184.072 79.7169 182.985 80.8078C181.899 81.8987 180.568 82.802 178.966 82.2304C178.905 82.201 178.853 82.1544 178.816 82.0963C178.78 82.0382 178.762 81.9709 178.762 81.9025C178.763 81.834 178.784 81.7673 178.822 81.7102C178.859 81.653 178.913 81.6079 178.975 81.5801Z" fill="#BC827E"/>
</g>
<g style="mix-blend-mode:multiply" opacity="0.49">
<path d="M112.079 66.0278C112.336 64.8321 113.493 63.8982 114.697 64.5877C115.504 65.0546 116.639 66.9136 115.57 67.6423C115.543 67.6621 115.512 67.6756 115.479 67.6817C115.446 67.6877 115.412 67.6864 115.38 67.6775C115.347 67.6687 115.317 67.6527 115.292 67.6308C115.267 67.6088 115.247 67.5815 115.234 67.5507C114.854 66.8569 114.941 65.8314 114.069 65.4648C112.873 64.9586 112.973 67.123 113.026 67.7471C113.063 68.5173 113.27 69.2698 113.632 69.9508C114.042 70.6708 114.714 71.0417 115.378 71.4955C115.413 71.5201 115.441 71.5527 115.461 71.5907C115.481 71.6287 115.491 71.6709 115.491 71.7137C115.491 71.7565 115.481 71.7988 115.461 71.8368C115.441 71.8747 115.413 71.9074 115.378 71.9319C114.23 72.8745 112.999 71.2075 112.572 70.2519C111.995 68.9231 111.823 67.4536 112.079 66.0278Z" fill="#BC827E"/>
</g>
<path opacity="0.36" d="M160.739 86.1054C160.874 87.6197 163.283 88.6408 166.115 88.3834C168.947 88.1259 171.133 86.6859 170.994 85.1716C170.854 83.6574 168.45 82.6319 165.618 82.8937C162.785 83.1556 160.599 84.5869 160.739 86.1054Z" fill="#8C2D41"/>
<path opacity="0.36" d="M123.014 78.194C122.578 79.6559 124.45 81.4886 127.182 82.2871C129.913 83.0857 132.471 82.5533 132.898 81.0915C133.326 79.6296 131.458 77.7968 128.731 76.9983C126.004 76.1997 123.442 76.7365 123.014 78.194Z" fill="#8C2D41"/>
<g style="mix-blend-mode:multiply" opacity="0.21">
<g style="mix-blend-mode:multiply" opacity="0.21">
<path d="M148.664 78.6215C150.044 78.8542 151.349 79.4088 152.474 80.2405C152.561 80.2961 152.634 80.3707 152.688 80.4587C152.88 80.8078 152.439 81.1612 152.064 81.2965C149.694 82.1387 147.05 81.5714 144.707 80.655C144.125 80.4771 143.603 80.1437 143.197 79.6906C142.97 79.3939 142.878 78.8965 143.197 78.6826C143.33 78.6072 143.48 78.5681 143.633 78.5692C145.964 78.4262 148.3 78.7679 150.493 79.5728L148.664 78.6215Z" fill="#DA8966"/>
</g>
</g>
<path d="M152.553 80.7772C151.968 80.4587 151.518 79.9612 150.899 79.6688C150.176 79.3571 149.412 79.1542 148.63 79.0667C147.896 78.9417 147.153 78.8775 146.408 78.8746C145.638 78.8961 144.892 79.1434 144.261 79.5859C143.563 80.0223 142.642 79.215 143.214 78.5037C144.462 76.9458 146.98 77.2993 148.704 77.5786C150.17 77.8142 153.033 78.4034 153.172 80.3103C153.198 80.6332 152.858 80.9736 152.531 80.7947L152.553 80.7772Z" fill="#8C4C49"/>
<path d="M132.501 187.118C136.712 182.715 143.921 153.77 144.549 151.208C144.501 151.387 144.453 151.57 144.397 151.745C143.432 154.865 138.287 170.287 133.775 170.448C127.972 170.653 123.35 152.64 124.062 146.622C122.622 152.897 128.116 191.734 132.501 187.118Z" fill="#4070BF"/>
<path d="M132.501 187.118C136.712 182.715 143.921 153.77 144.549 151.208C144.501 151.387 144.453 151.57 144.397 151.745C143.432 154.865 138.287 170.287 133.775 170.448C127.972 170.653 123.35 152.64 124.062 146.622C122.622 152.897 128.116 191.734 132.501 187.118Z" fill="#F9B25D"/>
<path d="M127.365 193.384C128.113 195.175 128.354 197.138 128.063 199.057C127.915 200.026 127.57 200.981 127.588 201.972C127.58 202.374 127.659 202.772 127.818 203.141C127.978 203.51 128.215 203.84 128.513 204.11C128.979 204.44 129.518 204.656 130.084 204.738C131.355 205.005 132.657 205.1 133.954 205.022C134.463 205.02 134.965 204.905 135.425 204.686C135.855 204.444 136.178 204.048 136.328 203.578C136.495 203.077 136.536 202.544 136.45 202.024C136.284 200.999 135.756 200.074 135.394 199.105C134.6 196.98 133.727 189.579 135.556 184.883C136.688 182.573 137.426 180.089 137.738 177.535C137.75 177.438 137.733 177.339 137.69 177.251C137.658 177.187 137.613 177.131 137.558 177.085C137.503 177.04 137.439 177.006 137.37 176.987C137.301 176.968 137.229 176.964 137.159 176.975C137.088 176.986 137.021 177.012 136.961 177.05C135.553 177.93 133.944 178.435 132.286 178.519C130.629 178.603 128.977 178.263 127.487 177.53C127.435 177.504 127.377 177.492 127.319 177.493C127.261 177.495 127.204 177.511 127.154 177.54C127.103 177.569 127.061 177.61 127.03 177.659C126.999 177.709 126.981 177.765 126.977 177.823C126.984 178.699 127.156 179.567 127.483 180.38C127.994 181.991 128.377 183.64 128.63 185.311C128.044 185.938 127.527 186.627 127.09 187.366C126.581 188.139 126.28 189.031 126.217 189.954C126.217 191.172 126.894 192.267 127.365 193.384Z" fill="#FF8888"/>
<path d="M127.365 193.384C128.113 195.175 128.354 197.138 128.063 199.057C127.915 200.026 127.57 200.981 127.588 201.972C127.58 202.374 127.659 202.772 127.818 203.141C127.978 203.51 128.215 203.84 128.513 204.11C128.98 204.44 129.518 204.656 130.084 204.738C131.355 205.005 132.657 205.1 133.954 205.022C134.463 205.02 134.965 204.905 135.425 204.686C135.855 204.444 136.178 204.048 136.328 203.578C134.975 203.373 133.588 203.298 132.401 202.661C130.939 201.885 129.996 200.362 129.495 198.782C128.993 197.202 128.875 195.535 128.622 193.895C128.308 191.669 127.786 189.477 127.064 187.349C126.555 188.122 126.254 189.013 126.191 189.937C126.217 191.172 126.894 192.267 127.365 193.384Z" fill="#F47676"/>
<path d="M150.235 182.304H152.234C157.034 179.136 164.806 173.716 170.632 168.257C168.785 169.246 166.621 169.464 164.614 168.864C159.94 167.511 158.391 164.675 157.885 162.79C157.911 168.026 153.373 176.291 150.384 181.161L150.235 182.304Z" fill="#F9B25D"/>
<path d="M148.224 186.978C149.271 187.836 150.506 188.434 151.828 188.723C153.233 189.025 154.726 188.798 156.078 189.365C159.133 190.674 160.695 194.85 164.614 194.052C164.723 194.033 164.831 194.008 164.937 193.977C166.163 193.65 171.007 188.339 162.685 185.966C160.839 185.438 158.138 185.036 156.777 183.548C156.449 183.233 156.252 182.806 156.222 182.352C156.288 181.794 156.546 181.276 156.951 180.886C158.339 179.25 163.863 175.916 161.751 175.58C161.11 175.479 156.742 173.516 155.852 172.215C155.76 172.045 155.615 171.91 155.439 171.831C155.263 171.752 155.066 171.734 154.878 171.779C154.745 171.846 154.63 171.947 154.547 172.071C153.706 173.128 152.93 174.236 152.225 175.388C151.737 176.16 151.27 176.946 150.803 177.731C150.113 178.875 149.406 180.048 148.621 181.126C147.927 182.082 146.958 182.981 146.875 184.229C146.869 184.761 146.988 185.287 147.222 185.764C147.456 186.242 147.799 186.657 148.224 186.978Z" fill="#FF8888"/>
<path d="M148.224 186.978C149.271 187.836 150.506 188.434 151.828 188.723C153.233 189.025 154.726 188.798 156.078 189.365C159.133 190.674 160.695 194.85 164.614 194.052C163.802 192.254 162.582 190.671 161.051 189.427C159.52 188.183 157.721 187.313 155.795 186.886C154.748 186.673 153.652 186.585 152.688 186.127C151.97 185.771 151.362 185.227 150.93 184.552C150.498 183.877 150.258 183.097 150.235 182.296C150.205 179.9 152.134 177.653 152.243 175.397C151.754 176.169 151.287 176.954 150.82 177.74C150.131 178.883 149.424 180.057 148.638 181.135C147.944 182.091 146.976 182.989 146.893 184.238C146.886 184.766 147.003 185.29 147.234 185.765C147.465 186.241 147.804 186.656 148.224 186.978Z" fill="#F47676"/>
<path d="M138.087 83.5963C138.087 83.8581 138.135 84.1505 138.174 84.469C138.347 86.0715 138.838 87.6234 139.618 89.0336C140.183 90.0379 140.971 90.8998 141.92 91.5533C142.869 92.2067 143.955 92.6345 145.095 92.8039C146.283 93.0331 147.508 92.9954 148.68 92.6935C149.852 92.3917 150.942 91.8332 151.872 91.0584C153.269 89.8823 154.415 88.4367 155.241 86.8081L155.35 86.5899C155.417 86.4526 155.448 86.3 155.438 86.1473C155.428 85.9946 155.378 85.8473 155.293 85.72C155.208 85.5927 155.091 85.4899 154.954 85.422C154.817 85.3541 154.665 85.3235 154.512 85.3331L153.74 85.3811C150.715 85.5469 145.143 85.5163 140.526 83.3825C140.133 83.2021 139.749 83.0057 139.374 82.7934C139.238 82.72 139.086 82.6839 138.932 82.6886C138.778 82.6934 138.628 82.7389 138.497 82.8205C138.366 82.9021 138.259 83.0168 138.187 83.1531C138.115 83.2894 138.08 83.4423 138.087 83.5963Z" fill="#701608"/>
<path d="M139.618 89.0248C140.184 90.0288 140.971 90.8903 141.92 91.5437C142.869 92.1971 143.955 92.6251 145.095 92.7951C146.283 93.0243 147.508 92.9867 148.68 92.6848C149.852 92.3829 150.942 91.8244 151.872 91.0496C151.872 91.0496 149.075 89.2779 145.937 90.3645C145.937 90.3514 145.047 88.4881 139.618 89.0248Z" fill="#DB5D66"/>
<path d="M140.945 86.1316C143.38 87.3884 151.069 88.2611 151.998 87.7549C152.928 87.2487 153.744 85.3505 153.744 85.3505C150.72 85.5163 145.147 85.4858 140.53 83.3519C140.517 85.4902 140.945 86.1316 140.945 86.1316Z" fill="white"/>
<path d="M171.519 75.7422C171.803 72.3898 169.316 69.442 165.963 69.1581C162.611 68.8742 159.663 71.3618 159.379 74.7142C159.095 78.0666 161.583 81.0144 164.935 81.2983C168.288 81.5822 171.236 79.0946 171.519 75.7422Z" fill="white"/>
<path d="M159.753 76.5314C159.81 77.4669 160.143 78.3646 160.71 79.1108C161.277 79.8571 162.053 80.4184 162.939 80.7237C163.825 81.0291 164.782 81.0649 165.688 80.8265C166.595 80.5881 167.41 80.0863 168.031 79.3845C168.653 78.6826 169.052 77.8124 169.179 76.8837C169.305 75.955 169.154 75.0096 168.743 74.167C168.332 73.3245 167.681 72.6226 166.872 72.1502C166.062 71.6778 165.131 71.4561 164.195 71.513C163.574 71.5508 162.966 71.7107 162.407 71.9833C161.847 72.256 161.347 72.6361 160.935 73.1021C160.522 73.5681 160.205 74.1109 160.003 74.6992C159.8 75.2876 159.715 75.9102 159.753 76.5314Z" fill="black"/>
<path d="M161.882 78.8092C161.899 79.0807 161.995 79.3412 162.16 79.5579C162.324 79.7746 162.549 79.9379 162.806 80.0272C163.063 80.1165 163.34 80.1278 163.604 80.0597C163.867 79.9916 164.104 79.8472 164.286 79.6446C164.467 79.442 164.585 79.1902 164.623 78.921C164.662 78.6518 164.62 78.3771 164.503 78.1316C164.386 77.886 164.199 77.6805 163.966 77.541C163.733 77.4014 163.463 77.3341 163.191 77.3473C163.009 77.3557 162.83 77.4003 162.665 77.4786C162.5 77.5569 162.352 77.6674 162.23 77.8035C162.108 77.9396 162.014 78.0987 161.955 78.2713C161.895 78.444 161.87 78.6269 161.882 78.8092Z" fill="white"/>
<path d="M138.442 72.6615C139.909 69.634 138.644 65.9901 135.617 64.5226C132.589 63.0551 128.946 64.3198 127.478 67.3473C126.011 70.3748 127.275 74.0187 130.303 75.4862C133.33 76.9536 136.974 75.689 138.442 72.6615Z" fill="white"/>
<path d="M136.843 73.165C138.335 71.0188 137.805 68.0695 135.659 66.5777C133.512 65.0858 130.563 65.6162 129.071 67.7624C127.579 69.9086 128.11 72.8579 130.256 74.3497C132.402 75.8416 135.351 75.3111 136.843 73.165Z" fill="black"/>
<path d="M135.151 73.9982C135.06 74.2555 134.895 74.48 134.677 74.6433C134.458 74.8065 134.196 74.9011 133.923 74.9149C133.651 74.9287 133.381 74.8611 133.147 74.7208C132.913 74.5804 132.726 74.3736 132.61 74.1268C132.494 73.8799 132.454 73.6041 132.495 73.3344C132.536 73.0648 132.657 72.8134 132.841 72.6125C133.026 72.4115 133.266 72.27 133.531 72.2059C133.796 72.1419 134.074 72.1581 134.33 72.2527C134.669 72.3777 134.944 72.6308 135.098 72.9573C135.251 73.2839 135.27 73.6578 135.151 73.9982Z" fill="white"/>
<g style="mix-blend-mode:multiply" opacity="0.49">
<g style="mix-blend-mode:multiply" opacity="0.49">
<path d="M180.367 71.6003C178.761 71.4956 177.395 68.1093 178.294 67.6424C176.296 67.5377 174.803 65.4867 174.764 63.4837C174.725 61.4808 175.829 59.6174 177.19 58.1468C175.388 59.6 172.508 58.7578 171.05 56.9599C169.593 55.1621 169.2 52.7402 168.965 50.4143C168.807 48.8826 169.082 46.8185 170.605 46.5873C169.565 47.6641 168.179 48.3417 166.69 48.5019C165.201 48.6622 163.703 48.295 162.457 47.4643C161.211 46.6336 160.296 45.392 159.871 43.9559C159.446 42.5197 159.539 40.9801 160.132 39.6053C160.045 40.951 159.593 42.2476 158.824 43.3556C158.055 44.4635 156.999 45.341 155.769 45.8934C154.526 46.4093 153.157 46.5379 151.84 46.2622C150.523 45.9866 149.321 45.3196 148.389 44.3487C147.486 43.3494 146.928 41.8439 147.552 40.6482C148.176 43.6592 145.937 46.8578 142.965 47.6302C139.994 48.4026 136.677 46.932 134.936 44.4054C135.669 45.9327 136.42 47.6433 135.935 49.271C135.407 51.0427 133.496 52.1162 131.65 52.2165C129.804 52.3169 128.011 51.6449 126.318 50.9074C126.848 52.2173 127.132 53.6138 127.155 55.0268C127.155 56.2399 126.968 57.5272 126.169 58.4436C125.371 59.36 123.852 59.7047 122.927 58.9192C123.363 60.2284 121.727 63.8983 118.127 63.2612C117.341 63.1215 117.385 57.2915 117.079 56.5541C116.29 54.6733 115.657 52.5961 116.133 50.6106C116.608 48.6251 118.568 46.8753 120.562 47.3073C118.842 45.5618 118.816 42.5944 119.994 40.43C121.173 38.2656 123.311 36.7863 125.545 35.7433C126.854 35.1324 128.7 34.7658 129.542 35.9484C130.851 30.965 136.363 27.4871 141.434 28.4341C143.271 28.7744 145.217 29.8915 145.522 31.733C146.806 30.3807 148.399 29.3607 150.164 28.7609C151.929 28.1611 153.814 27.9995 155.655 28.29C156.964 28.5126 158.522 29.285 158.548 30.6377C161.516 29.0362 165.264 28.6828 168.258 30.2319C171.251 31.781 173.189 35.4117 172.303 38.6627C173.734 38.8852 175.098 39.4243 176.295 40.2409C177.491 41.0574 178.491 42.1307 179.22 43.3825C179.949 44.6343 180.39 46.0331 180.51 47.4768C180.63 48.9205 180.426 50.3728 179.913 51.7278C182.056 51.7845 183.841 53.7046 184.251 55.8079C184.661 57.9112 183.98 60.1018 182.942 61.9695C184.5 62.0524 185.468 64.0161 184.91 65.4605C184.351 66.9049 182.728 67.7515 181.161 67.8038C181.39 67.9236 181.592 68.0876 181.757 68.2863C181.922 68.485 182.045 68.7145 182.12 68.9614C182.195 69.2083 182.221 69.4677 182.195 69.7244C182.169 69.9812 182.092 70.2302 181.969 70.457L180.367 71.6003Z" fill="#BC827E"/>
</g>
</g>
<path d="M185.045 69.7849C184.498 70.5437 183.807 71.1872 183.012 71.6788C182.187 72.1152 181.091 72.1893 180.367 71.6002C179.455 70.8584 179.494 69.366 180.166 68.3885C180.838 67.411 181.912 66.8219 182.942 66.2677C180.633 66.1499 178.901 63.776 178.862 61.4676C178.822 59.1592 180.097 57.0035 181.667 55.306C179.582 56.9816 176.261 56.0085 174.572 53.927C172.883 51.8455 172.438 49.057 172.163 46.3951C171.984 44.6235 172.299 42.2365 174.061 41.9703C172.857 43.2161 171.254 43.9993 169.531 44.1833C167.808 44.3672 166.076 43.9402 164.636 42.9767C163.196 42.0133 162.14 40.5746 161.652 38.9119C161.165 37.2493 161.277 35.4683 161.97 33.8799C161.87 35.4321 161.351 36.9281 160.467 38.2079C159.583 39.4877 158.368 40.5032 156.951 41.1456C155.515 41.7409 153.932 41.889 152.41 41.5706C150.888 41.2521 149.497 40.482 148.42 39.3608C147.377 38.2044 146.731 36.4633 147.451 35.0843C148.176 38.5753 145.588 42.254 142.154 43.1485C138.719 44.0431 134.892 42.3456 132.876 39.4219C133.749 41.1674 134.596 43.166 134.033 45.0468C133.422 47.0934 131.214 48.3327 129.08 48.4505C126.946 48.5683 124.878 47.7872 122.918 46.9406C123.531 48.4546 123.859 50.0685 123.887 51.7015C123.909 53.1023 123.669 54.5903 122.752 55.6289C121.836 56.6674 120.069 57.0907 119.004 56.1787C119.48 57.6821 119.841 59.2197 120.082 60.7781C120.227 61.3385 120.188 61.931 119.968 62.4669C119.567 63.2262 118.511 63.4575 117.717 63.1302C116.936 62.7504 116.328 62.0894 116.015 61.28C115.613 60.3678 115.426 59.3754 115.47 58.3796C115.513 57.3838 115.784 56.4113 116.264 55.5373C115.714 56.2704 114.518 56.2398 113.776 55.7118C113.034 55.1838 112.607 54.3023 112.253 53.4514C111.341 51.2695 110.612 48.8738 111.162 46.5828C111.712 44.2918 113.973 42.2627 116.281 42.7645C114.291 40.7267 114.261 37.3186 115.622 34.8181C116.984 32.3177 119.458 30.6071 122.037 29.4071C123.56 28.6958 125.681 28.2725 126.658 29.6384C128.185 23.8782 134.539 19.8635 140.395 20.9545C142.516 21.3516 144.759 22.6433 145.121 24.7728C146.603 23.2087 148.443 22.0286 150.483 21.3345C152.523 20.6404 154.701 20.4531 156.829 20.7887C158.369 21.0461 160.141 21.9407 160.172 23.5029C163.602 21.6527 167.93 21.2468 171.391 23.036C174.851 24.8251 177.09 29.0187 176.064 32.7759C177.719 33.033 179.296 33.6566 180.679 34.6012C182.062 35.5458 183.216 36.7874 184.058 38.2354C184.899 39.6834 185.407 41.3011 185.543 42.9703C185.679 44.6395 185.44 46.318 184.844 47.8832C187.323 47.9487 189.374 50.1698 189.863 52.6005C190.351 55.0311 189.548 57.5577 188.331 59.7177C190.129 59.8181 191.25 62.0829 190.604 63.7673C189.959 65.4517 188.078 66.4117 186.276 66.4772C186.551 66.6041 186.796 66.7878 186.996 67.016C187.195 67.2442 187.344 67.5119 187.433 67.8016C187.522 68.0914 187.549 68.3966 187.512 68.6974C187.475 68.9983 187.375 69.288 187.219 69.5476C187.062 69.8071 186.853 70.0308 186.604 70.2039C186.355 70.3771 186.073 70.4958 185.775 70.5524C185.477 70.6089 185.171 70.6021 184.876 70.5323C184.581 70.4624 184.304 70.3312 184.063 70.1471L185.045 69.7849Z" fill="#3D2326"/>
<path d="M195.466 59.8442C199.114 58.6224 201.71 54.7517 200.728 50.8636C199.563 46.2642 193.489 46.1595 190.495 48.9261C190.395 49.0284 190.332 49.1606 190.314 49.3025C190.296 49.4444 190.326 49.5882 190.397 49.7119C190.469 49.8356 190.579 49.9324 190.711 49.9875C190.843 50.0426 190.99 50.053 191.128 50.017C192.472 49.5807 193.746 48.8737 195.2 48.865C195.687 48.8464 196.173 48.9247 196.629 49.0955C197.086 49.2663 197.504 49.5261 197.859 49.8599C198.214 50.1936 198.5 50.5946 198.699 51.0396C198.898 51.4846 199.006 51.9647 199.018 52.452C199.065 53.7321 198.709 54.9947 197.999 56.0612C197.29 57.1278 196.263 57.9443 195.064 58.3954C194.191 58.7402 194.532 60.141 195.466 59.8442Z" fill="#543439"/>
<path d="M186.206 41.5777C189.26 39.3566 191.403 35.5077 189.426 31.8204C187.925 29.0145 183.186 27.413 181.183 30.6116C180.786 31.2487 181.55 31.8247 182.134 31.5585C184.674 30.4108 187.249 31.0218 187.986 34.0328C188.584 36.4808 187.113 38.9246 185.416 40.5522C184.897 41.0497 185.599 42.0228 186.206 41.5777Z" fill="#543439"/>
<path d="M151.243 26.8543C152.478 22.988 149.55 19.3312 145.457 19.9683C142.084 20.4919 139.221 24.559 141.093 27.7882C141.157 27.894 141.254 27.9761 141.369 28.0222C141.484 28.0684 141.61 28.0761 141.73 28.0441C141.849 28.0121 141.955 27.9422 142.032 27.8449C142.108 27.7476 142.151 27.6282 142.154 27.5045C142.398 25.2354 142.669 22.5996 145.208 21.7749C148.184 20.8149 150.934 23.6251 150.266 26.575C150.245 26.6982 150.27 26.8249 150.337 26.9303C150.404 27.0358 150.508 27.1124 150.629 27.1451C150.75 27.1779 150.878 27.1644 150.989 27.1074C151.101 27.0504 151.186 26.9539 151.23 26.8368L151.243 26.8543Z" fill="#543439"/>
<path d="M131.244 19.628C129.87 16.4991 126.514 13.9202 123.075 15.8882C120.051 17.6337 119.27 21.9495 121.544 24.5808C122.006 25.1176 122.739 24.5285 122.63 23.9437C122.224 21.7269 121.596 18.9821 123.865 17.5115C126.361 15.9013 129.18 17.8955 130.31 20.1734C130.625 20.8062 131.519 20.252 131.244 19.628Z" fill="#543439"/>
<path d="M118.572 36.2844C116.927 31.4843 110.678 33.7272 108.788 37.1571C106.642 41.0583 109.225 47.5996 114.322 46.6571C114.758 46.5785 114.758 45.9938 114.435 45.7843C112.109 44.3006 109.574 42.3194 110.154 39.2081C110.735 36.0967 115.971 32.693 118.035 36.5113C118.074 36.5686 118.131 36.6107 118.197 36.6304C118.263 36.6502 118.334 36.6462 118.397 36.6194C118.461 36.5926 118.513 36.5444 118.545 36.4833C118.577 36.4222 118.586 36.3518 118.572 36.2844Z" fill="#543439"/>
<path d="M105.009 63.7063C102.95 63.7499 100.528 65.5609 100.855 67.817C101.161 69.9203 103.556 71.5218 105.585 71.404C105.7 71.4018 105.811 71.3628 105.901 71.2927C105.992 71.2227 106.057 71.1254 106.088 71.0152C106.119 70.905 106.113 70.7878 106.072 70.681C106.031 70.5742 105.957 70.4834 105.86 70.4221C104.918 69.7545 103.731 68.9821 103.242 67.8781C102.531 66.2984 104.202 65.1769 105.241 64.23C105.282 64.1867 105.31 64.1324 105.321 64.0737C105.332 64.0149 105.326 63.9542 105.304 63.8989C105.281 63.8435 105.243 63.7959 105.194 63.7617C105.145 63.7275 105.087 63.7083 105.027 63.7063H105.009Z" fill="#543439"/>
<path d="M193.89 73.7603C195.042 75.244 197.582 75.0432 199.04 74.1138C200.497 73.1843 201.095 71.3602 200.864 69.75C200.51 67.219 195.941 62.2749 193.445 65.299C193.389 65.3587 193.354 65.4347 193.345 65.5159C193.336 65.5971 193.353 65.6791 193.395 65.7497C193.436 65.8203 193.499 65.8757 193.574 65.9077C193.649 65.9397 193.732 65.9466 193.812 65.9274C196.321 65.2553 199.24 67.6729 199.022 70.3522C198.791 73.1276 195.736 72.3727 193.947 73.276C193.906 73.3016 193.871 73.3359 193.845 73.3766C193.819 73.4173 193.802 73.4633 193.796 73.5113C193.789 73.5593 193.794 73.6081 193.809 73.6542C193.824 73.7003 193.849 73.7425 193.882 73.7777L193.89 73.7603Z" fill="#543439"/>
<path d="M172.857 31.6457C172.8 33.1774 171.723 34.6742 170.134 34.8749C168.847 35.0407 167.407 34.2901 166.543 33.365C166.476 33.286 166.384 33.233 166.283 33.2156C166.181 33.1981 166.076 33.2171 165.987 33.2695C165.898 33.3218 165.831 33.404 165.797 33.5013C165.763 33.5987 165.764 33.705 165.801 33.8014C165.886 34.3194 166.099 34.8082 166.42 35.224C166.74 35.6398 167.159 35.9696 167.638 36.184C168.628 36.684 169.773 36.7794 170.832 36.4502C171.813 36.1046 172.638 35.4202 173.159 34.5201C173.68 33.62 173.862 32.5636 173.673 31.541C173.599 31.061 172.87 31.2006 172.857 31.6501V31.6457Z" fill="#543439"/>
<path d="M168.755 23.2019C172.473 22.4688 173.198 17.8607 170.501 15.4868C169.266 14.3958 167.494 13.5624 165.858 14.2431C164.221 14.9239 163.619 16.6257 163.209 18.2578C163.185 18.3156 163.184 18.3808 163.208 18.4389C163.232 18.497 163.278 18.5433 163.335 18.5676C163.393 18.5919 163.458 18.5922 163.517 18.5685C163.575 18.5448 163.621 18.4989 163.645 18.441C164.082 17.6032 164.631 16.5952 165.434 16.0541C166.696 15.1813 168.162 15.8708 169.165 16.8308C170.911 18.4847 170.13 20.828 168.188 21.8841C167.437 22.2942 167.974 23.3546 168.742 23.1932L168.755 23.2019Z" fill="#543439"/>
<path d="M131.262 30.2013C132.366 31.2181 132.318 34.024 131.332 35.1193C130.175 36.4284 127.74 34.8662 126.479 34.3906C126.012 34.216 125.737 34.7833 125.899 35.1455C127.051 37.7114 131.188 38.8634 133.012 36.4197C134.452 34.4822 134.321 30.4675 132.021 29.2195C131.415 28.8966 130.712 29.7039 131.262 30.2013Z" fill="#543439"/>
<path d="M185.495 49.0047C184.011 49.3844 182.327 49.812 180.965 48.8694C179.604 47.9268 179.049 45.6882 180.315 44.4097C180.342 44.3777 180.357 44.3375 180.358 44.2958C180.358 44.2541 180.345 44.2134 180.32 44.1803C180.294 44.1472 180.258 44.1238 180.218 44.114C180.177 44.1041 180.134 44.1083 180.097 44.126C177.662 45.2475 177.273 48.1538 179.176 49.9909C181.079 51.8281 184.351 51.6186 185.857 49.476C186.023 49.236 185.748 48.9436 185.495 49.0047Z" fill="#543439"/>
<g style="mix-blend-mode:screen" opacity="0.25">
<g style="mix-blend-mode:screen" opacity="0.25">
<path d="M201.898 42.8083L201.811 43.0832C201.858 42.9986 201.9 42.9111 201.937 42.8214C202.068 42.5301 202.149 42.2188 202.177 41.9006L201.898 42.8083Z" fill="#3D2326"/>
</g>
</g>
<g style="mix-blend-mode:screen" opacity="0.25">
<g style="mix-blend-mode:screen" opacity="0.25">
<path d="M98.2631 35.4465L98.6995 34.9185C98.0619 33.2067 98.0815 31.3193 98.7545 29.6211C99.4275 27.9229 100.706 26.5344 102.343 25.7241L102.692 25.5539C101.853 26.1552 101.132 26.9068 100.567 27.7707C99.3757 29.6807 98.94 31.9667 99.3453 34.181C100.511 32.8125 101.828 31.5813 103.273 30.5112C105.921 28.6478 109.517 27.7053 112.437 29.1366C111.075 25.8463 112.764 21.6265 116.019 20.1821C116.243 18.5777 116.93 17.0733 117.995 15.8527C119.06 14.6321 120.458 13.7482 122.017 13.309C123.576 12.8697 125.23 12.8942 126.776 13.3793C128.321 13.8645 129.692 14.7894 130.721 16.0409C131.698 11.987 136.634 9.93167 140.727 10.7477C144.82 11.5637 148.145 14.4089 151.178 17.2933C152.125 13.7107 155.276 10.6953 158.959 10.3113C162.642 9.92731 166.517 12.563 167.167 16.2068C168.877 14.4831 171.67 14.1994 173.974 14.9805C176.278 15.7617 178.172 17.4199 179.839 19.1872C181.406 20.8454 182.863 22.6782 183.592 24.8601C184.321 27.042 184.216 29.5729 182.85 31.4057C188.375 29.2238 194.453 32.7148 198.996 36.5375C200.105 37.4308 201.024 38.5378 201.697 39.7929C202.083 38.9802 202.304 38.0992 202.347 37.2008C202.452 35.1716 201.793 33.1861 201.038 31.3141C199.96 28.6958 198.52 26.0776 196.112 24.6244C193.703 23.1713 190.103 23.3546 188.532 25.6936C189.959 23.7691 189.981 21.0592 189.06 18.8468C188.139 16.6344 186.394 14.8671 184.5 13.4009C182.318 11.7121 179.752 10.3201 176.99 10.211C175.15 10.1324 173.344 10.73 171.915 11.891C171.918 9.33733 171.094 6.85132 169.565 4.80575C168.036 2.76017 165.886 1.26527 163.436 0.545228C160.255 -0.467163 156.86 -0.104979 154.172 1.92853C151.771 3.74385 150.397 6.35338 150.563 9.34692C150.562 9.40529 150.575 9.46308 150.6 9.51546C150.626 9.56783 150.664 9.61327 150.711 9.64802C150.393 10.3608 150.152 11.1054 149.991 11.8692C149.421 9.54303 148.114 7.46362 146.265 5.94111C144.416 4.41861 142.124 3.53461 139.732 3.42096C135.242 3.31186 130.882 6.35774 129.337 10.5469C126.889 5.33662 118.991 4.76934 114.248 7.16941C112.822 7.87674 111.587 8.91488 110.645 10.1971C109.703 11.4793 109.081 12.9683 108.832 14.5398C108.534 16.5363 108.89 18.5757 109.849 20.3523C110.053 21.4097 110.478 22.4121 111.097 23.2935C107.964 22.076 103.552 23.0229 100.995 24.5328C97.0412 26.85 95.4921 31.8246 98.2631 35.4465ZM151.619 7.95488C152.218 5.83305 153.512 3.9737 155.293 2.67474C157.649 1.03397 160.612 0.985973 163.257 1.94164C165.788 2.84518 167.895 4.65488 169.17 7.02105C169.43 7.52434 169.645 8.05012 169.811 8.592C168.424 5.40209 165.277 2.85366 161.751 2.56565C157.724 2.25146 153.822 4.57298 151.619 7.97235V7.95488ZM110.377 15.3733C110.405 15.0241 110.456 14.6772 110.53 14.3347C110.829 13.0695 111.415 11.8902 112.243 10.8876C113.071 9.88509 114.118 9.08621 115.304 8.55271C117.915 7.31694 120.899 7.11888 123.651 7.99853C123.878 8.07271 124.088 8.15998 124.315 8.25598C121.652 7.73571 118.893 8.10365 116.46 9.30329C113.85 10.5906 111.533 12.6896 110.377 15.3689V15.3733Z" fill="#3D2326"/>
</g>
</g>
<path d="M13.9335 104.023V110.054H50.4407V105.424C48.5948 106.07 45.1431 106.733 38.7065 106.79C26.1695 106.907 16.9052 106.541 13.9335 104.023Z" fill="#E05A5A"/>
<path d="M203.927 136.494L204.861 138.545L207.34 144.03L245.169 227.635H252.312C252.312 227.635 230.118 168.004 221.369 144.069C219.279 138.344 217.957 134.657 217.878 134.321L203.927 136.494Z" fill="#E7AC8D"/>
<g style="mix-blend-mode:multiply" opacity="0.44">
<path d="M217.891 134.321L203.927 136.502L207.34 144.039C213.056 144.039 217.839 144.039 221.369 144.078C219.279 138.344 217.957 134.657 217.891 134.321Z" fill="#CC9281"/>
</g>
<path d="M41.1851 227.635H48.3286L86.1274 144.1L89.566 136.494L87.3318 136.145L75.6064 134.321C75.5409 134.657 74.21 138.366 72.1154 144.122C63.3486 168.092 41.1851 227.635 41.1851 227.635Z" fill="#E7AC8D"/>
<g style="mix-blend-mode:multiply" opacity="0.44">
<path d="M72.1067 144.121L86.1274 144.1L89.5661 136.494L75.602 134.312C75.5409 134.657 74.21 138.366 72.1067 144.121Z" fill="#CC9281"/>
</g>
<g style="mix-blend-mode:multiply" opacity="0.44">
<path d="M45.994 227.635H48.3286L86.1275 144.1L89.5661 136.494L87.3318 136.145L82.1259 138.545L45.994 227.635Z" fill="#CC9281"/>
</g>
<path d="M194.056 138.545H225.833V132.872H194.056V138.545Z" fill="#CC9281"/>
<path d="M99.4412 132.872H67.6644V138.545H99.4412V132.872Z" fill="#CC9281"/>
<path d="M275.501 126.518H18.4194V132.872H275.501V126.518Z" fill="#F4B5A2"/>
<path d="M275.501 127.963H18.4194V132.872H275.501V127.963Z" fill="#E7AC8D"/>
<g style="mix-blend-mode:multiply" opacity="0.44">
<path d="M194.056 138.545H225.833V132.872H194.056V138.545Z" fill="#CC9281"/>
</g>
<g style="mix-blend-mode:multiply" opacity="0.44">
<path d="M99.4412 132.872H67.6644V138.545H99.4412V132.872Z" fill="#CC9281"/>
</g>
<g style="mix-blend-mode:multiply" opacity="0.44">
<path d="M204.861 138.545L207.339 144.03L245.169 227.635H248.551L212.65 138.545H204.861Z" fill="#CC9281"/>
</g>
<path d="M13.9335 108.971V117.738H56.1136V110.211L13.9335 108.971Z" fill="#FFDF7B"/>
<g style="mix-blend-mode:multiply">
<path d="M13.9335 112.75V117.751H56.1136V113.117C55.2408 113.99 53.3033 114.954 49.1577 114.954C42.7954 114.932 22.8574 115.508 13.9335 112.75Z" fill="#FFDF7B"/>
</g>
<path d="M12.2316 116.189V126.518H49.4937L49.9301 122.451L50.4363 117.738L12.2316 116.189Z" fill="#8456CC"/>
<path d="M12.2316 121.351V126.518H49.4937L49.9301 122.451C49.8908 122.503 48.5861 124.197 42.887 124.437C37.0963 124.703 13.4229 125.222 12.2316 121.351Z" fill="#6F45BF"/>
<path d="M114.509 123.285L114.758 124.013L115.251 125.462L143.589 126.134L171.928 125.462L172.669 123.28C168.248 123.209 163.849 122.635 159.556 121.57C153.094 119.859 146.439 119.667 143.589 122.521C140.74 119.667 134.085 119.859 127.622 121.57C123.33 122.636 118.931 123.212 114.509 123.285Z" fill="#DFE6EF"/>
<path d="M114.889 126.514H172.29V125.187H171.461H114.889V126.514Z" fill="#5C39B2"/>
<path d="M114.509 123.285L114.758 124.013C118.428 124.175 124.585 123.477 131.236 121.766C137.886 120.055 143.397 123.285 143.589 123.285V122.525C140.74 119.671 134.085 119.863 127.622 121.574C123.33 122.639 118.931 123.213 114.509 123.285Z" fill="white"/>
<path d="M172.669 123.285L172.421 124.013C168.751 124.175 162.594 123.477 155.943 121.766C149.293 120.055 143.781 123.285 143.589 123.285V122.525C146.439 119.671 153.094 119.863 159.556 121.574C163.849 122.639 168.248 123.213 172.669 123.285Z" fill="white"/>
<path d="M68.284 114.125C68.403 114.168 68.5284 114.19 68.6549 114.191C68.8769 114.191 69.0935 114.122 69.2754 113.995C69.4572 113.868 69.5956 113.688 69.6717 113.479L71.9888 107.152L73.1889 103.87L77.4348 92.2714C77.5183 92.0061 77.4965 91.7188 77.3739 91.4691C77.2512 91.2195 77.0371 91.0266 76.7761 90.9306C76.515 90.8346 76.227 90.8428 75.9718 90.9535C75.7166 91.0643 75.5139 91.269 75.4057 91.5252L70.8848 103.87L69.9815 106.327L69.6411 107.252L69.0346 108.915L67.6338 112.733C67.5845 112.867 67.5622 113.01 67.5683 113.152C67.5743 113.295 67.6086 113.435 67.669 113.564C67.7295 113.694 67.8149 113.81 67.9205 113.906C68.026 114.003 68.1496 114.077 68.284 114.125Z" fill="#6F45BF"/>
<path d="M68.655 107.894L68.5765 108.971H68.6856C68.8062 108.973 68.926 108.952 69.0391 108.91C69.6238 108.718 69.7329 108.011 69.8071 107.51L69.8463 107.248L69.986 106.323L70.3569 103.866L71.6137 95.5354C71.6565 95.2513 71.5847 94.9618 71.4141 94.7306C71.2434 94.4994 70.988 94.3455 70.7038 94.3026C70.4197 94.2598 70.1302 94.3316 69.899 94.5022C69.6678 94.6729 69.5139 94.9284 69.4711 95.2125C69.1176 97.5777 68.5983 101.143 68.1619 103.866C67.935 105.371 67.7256 106.619 67.6514 107.252C67.6077 107.518 67.5859 107.688 67.5772 107.688L68.6463 107.863L68.655 107.894Z" fill="#F9C853"/>
<path d="M58.2649 87.8378L60.9311 103.87L61.4984 107.257L61.5944 107.85C61.6376 108.101 61.7681 108.329 61.9629 108.494C62.1577 108.658 62.4043 108.748 62.6592 108.749C62.7187 108.755 62.7786 108.755 62.8381 108.749C63.1183 108.699 63.3674 108.54 63.5309 108.307C63.6944 108.074 63.7591 107.786 63.7108 107.505L63.6672 107.27L63.1043 103.883L60.377 87.4931C60.3535 87.3532 60.3027 87.2194 60.2274 87.0992C60.1522 86.979 60.0541 86.8748 59.9386 86.7926C59.8231 86.7103 59.6925 86.6516 59.5544 86.6198C59.4162 86.588 59.2731 86.5837 59.1333 86.6072C58.9934 86.6307 58.8596 86.6815 58.7394 86.7567C58.6192 86.832 58.5151 86.9301 58.4328 87.0456C58.3505 87.1611 58.2918 87.2917 58.26 87.4298C58.2282 87.568 58.2239 87.7111 58.2474 87.8509L58.2649 87.8378Z" fill="#8456CC"/>
<g style="mix-blend-mode:multiply" opacity="0.26">
<path d="M67.66 107.257H71.6223L71.9888 107.152L73.1889 103.87H70.8848L69.9815 106.327L70.3524 103.87H68.1706C67.9436 105.376 67.7516 106.641 67.66 107.257Z" fill="#712E57"/>
</g>
<g style="mix-blend-mode:multiply" opacity="0.26">
<path d="M60.9311 103.87L61.4984 107.257H63.6846L63.1217 103.87H60.9311Z" fill="#712E57"/>
</g>
<path d="M72.8486 105.437H58.0555V126.518H72.8486V105.437Z" fill="#FF8888"/>
<g opacity="0.46">
<path opacity="0.46" d="M58.0555 118.607V126.518H72.8486V119.222C70.7279 120.881 68.1225 121.801 65.4302 121.84C64.0429 121.848 62.6695 121.565 61.3989 121.008C60.1284 120.451 58.9893 119.633 58.0555 118.607Z" fill="#E05A5A"/>
</g>
<path d="M58.0555 105.437V108.71C60.2542 110.136 62.8316 110.868 65.452 110.809C68.0461 110.831 70.6018 110.182 72.8704 108.923V105.432L58.0555 105.437Z" fill="#FFB3B3"/>
<path d="M218.083 121.478L265.26 122.822L268.476 121.478L284.417 87.1876L283.919 86.0443H231.1L220.265 115.521L218.083 121.478Z" fill="#6B6B6B"/>
<path d="M219.279 121.478L266.455 122.822L269.667 121.478L284.417 87.1876H231.842L221.461 115.526L219.279 121.478Z" fill="#545454"/>
<path d="M269.671 121.474H203.12V126.514H269.671V121.474Z" fill="#606060"/>
<g style="mix-blend-mode:multiply" opacity="0.35">
<path d="M203.12 121.478V126.518H269.667V121.478L284.417 87.1876C284.168 87.624 267.398 117.119 221.923 115.552H221.461L219.279 121.509L203.12 121.478Z" fill="#B7B7B7"/>
</g>
</svg>
